<svg xmlns="http://www.w3.org/2000/svg" width="20.014" height="19.977" viewBox="0 0 20.014 19.977">
  <path id="illustration" d="M21.9,9.6a.992.992,0,0,0-1.3-.5h0l-2.9,1.4L15.6,8.4,13.5,6.3l1.4-2.9a.985.985,0,0,0-1.8-.8L11.6,5.7l-6.4,1a1.085,1.085,0,0,0-.8.8L2,19.1a.806.806,0,0,0,.3.9L4,21.7a1.08,1.08,0,0,0,.7.3h.2l11.6-2.4a1.085,1.085,0,0,0,.8-.8l1-6.4,3.1-1.5A.992.992,0,0,0,21.9,9.6Zm-6.5,8.2-9.8,2,3.7-3.7a3,3,0,1,0,2.6-5.4,3.076,3.076,0,0,0-3.4.6h0a3.076,3.076,0,0,0-.6,3.4L4.2,18.4l2-9.8,5.8-1,2.2,2.2L16.4,12ZM9.6,13.4a.908.908,0,0,1,.3-.7h0a.99.99,0,1,1,0,1.4A1.08,1.08,0,0,1,9.6,13.4Z" transform="translate(-1.963 -2.023)" fill="#262a2d"/>
</svg>
