<svg xmlns="http://www.w3.org/2000/svg" width="22" height="20.094" viewBox="0 0 22 20.094">
  <path id="telegram-alt" d="M22.265,2.428A2.048,2.048,0,0,0,20.187,2.1L2.266,9.339a2.043,2.043,0,0,0,.1,3.818L6,14.418,8.016,21.1a1,1,0,0,0,.118.252c.008.012.019.021.027.033a.988.988,0,0,0,.211.216c.023.018.045.034.07.05a.986.986,0,0,0,.311.136h.012l.007,0a1.022,1.022,0,0,0,.2.021c.007,0,.012,0,.019,0a.993.993,0,0,0,.3-.052c.023-.008.042-.021.064-.03a.993.993,0,0,0,.2-.115l.152-.128,2.7-2.983,4.03,3.122a2.023,2.023,0,0,0,1.241.427A2.054,2.054,0,0,0,19.7,20.415L22.958,4.4a2.03,2.03,0,0,0-.693-1.971ZM9.37,14.736a.994.994,0,0,0-.272.506l-.31,1.5L8,14.153l4.065-2.117Zm8.3,5.3-4.763-3.689a1,1,0,0,0-1.354.119l-.865.955L11,15.938l7.083-7.083A1,1,0,0,0,16.91,7.262L6.745,12.554,3.021,11.191,21,4Z" transform="translate(-1 -1.954)" fill="#262a2d"/>
</svg>
