<svg viewBox="0 0 259.58 90.98" xmlns="http://www.w3.org/2000/svg"><g fill="#fff" opacity=".8"><path d="m141.86 36.62q0 8.91-7.05 11.51l9.38 13.25h-10.19l-8.22-11.82h-5.72v11.82h-8.26v-37.05h14q8.64 0 12.32 2.91t3.74 9.38zm-10 4.4a5.59 5.59 0 0 0 1.54-4.37q0-3-1.59-4.11t-5.57-1.11h-6.2v11h6c2.9-.03 4.82-.49 5.85-1.43z"/><path d="m174.4 42.51h8.32v13.14q-5.5 6.15-15.26 6.15a18.88 18.88 0 0 1 -13.71-5.4 18.29 18.29 0 0 1 -5.53-13.65 18.46 18.46 0 0 1 5.64-13.75 18.83 18.83 0 0 1 13.62-5.51 20.18 20.18 0 0 1 13.87 5.25l-4.3 6.2a16.47 16.47 0 0 0 -4.58-3 12.5 12.5 0 0 0 -4.54-.82 10.86 10.86 0 0 0 -8 3.21 11.39 11.39 0 0 0 -3.23 8.45 11.44 11.44 0 0 0 3.1 8.4 10 10 0 0 0 7.4 3.16 14.24 14.24 0 0 0 7.15-1.64z"/><path d="m215.62 27.64q3.88 3.32 3.89 10.18t-4 10q-4 3.18-12.22 3.18h-4.93v10.38h-8.27v-37.05h13.09q8.54 0 12.44 3.31zm-6.07 14.58a7.19 7.19 0 0 0 1.45-4.88q0-3.21-1.94-4.56t-6-1.35h-4.72v12.46h5.57c2.77 0 4.65-.56 5.64-1.67z"/><path d="m254.28 29.18q5.31 4.84 5.3 13.49t-5.16 13.67q-5.17 5-15.77 5h-12.65v-37.01h13.09q9.91 0 15.19 4.85zm-6.07 22c2-1.91 3-4.68 3-8.32s-1-6.44-3-8.4-5.15-2.94-9.35-2.94h-4.61v22.54h5.24c3.79 0 6.69-.95 8.72-2.86z"/><path d="m45.8 62.58-.24-.06c-7.92-1.93-13.9-9.88-13.9-18.49v-9.41l14.14-6.28 14.13 6.28v9.38c0 8.61-6 16.56-13.9 18.49zm-12.17-26.68v8.1c0 7.64 5.21 14.69 12.17 16.51 6.95-1.79 12.2-8.84 12.2-16.51v-8.1l-12.2-5.4z"/><path d="m50.27 41h-.75v-1.51a3.73 3.73 0 1 0 -7.45 0v1.51h-.75a1.49 1.49 0 0 0 -1.49 1.49v7.46a1.49 1.49 0 0 0 1.49 1.49h9a1.49 1.49 0 0 0 1.49-1.49v-7.48a1.49 1.49 0 0 0 -1.54-1.47zm-4.47 6.69a1.49 1.49 0 1 1 1.49-1.49 1.5 1.5 0 0 1 -1.49 1.49zm2.31-6.69h-4.63v-1.51a2.32 2.32 0 0 1 4.63 0z"/><path d="m45.8 0 1.47 4.55h4.79l-3.87 2.81 1.48 4.55-3.87-2.81-3.87 2.81 1.48-4.55-3.88-2.81h4.79z"/><path d="m45.8 79.07 1.47 4.55h4.79l-3.87 2.81 1.48 4.55-3.87-2.81-3.87 2.81 1.48-4.55-3.88-2.81h4.79z"/><path d="m6.26 39.53 1.48 4.55h4.78l-3.87 2.82 1.48 4.54-3.87-2.81-3.87 2.81 1.48-4.54-3.87-2.82h4.78z"/><path d="m85.33 39.53 1.48 4.55h4.78l-3.87 2.82 1.48 4.54-3.87-2.81-3.87 2.81 1.48-4.54-3.87-2.82h4.78z"/><path d="m11.39 20.06 1.48 4.55h4.78l-3.87 2.81 1.48 4.54-3.87-2.81-3.87 2.81 1.48-4.54-3.87-2.81h4.78z"/><path d="m80.2 20.06 1.48 4.55h4.78l-3.87 2.81 1.48 4.54-3.87-2.81-3.87 2.81 1.48-4.54-3.87-2.81h4.78z"/><path d="m11.39 59.01 1.48 4.55h4.78l-3.87 2.82 1.48 4.54-3.87-2.81-3.87 2.81 1.48-4.54-3.87-2.82h4.78z"/><path d="m80.2 59.01 1.48 4.55h4.78l-3.87 2.82 1.48 4.54-3.87-2.81-3.87 2.81 1.48-4.54-3.87-2.82h4.78z"/><path d="m25.91 5.07 1.48 4.55h4.78l-3.87 2.81 1.48 4.55-3.87-2.81-3.87 2.81 1.48-4.55-3.87-2.81h4.78z"/><path d="m65.68 5.07 1.48 4.55h4.78l-3.87 2.81 1.48 4.55-3.87-2.81-3.87 2.81 1.48-4.55-3.87-2.81h4.78z"/><path d="m25.91 74 1.48 4.55h4.78l-3.87 2.81 1.48 4.55-3.87-2.81-3.87 2.81 1.48-4.55-3.87-2.81h4.78z"/><path d="m65.68 74 1.48 4.55h4.78l-3.87 2.81 1.48 4.55-3.87-2.81-3.87 2.81 1.48-4.55-3.87-2.81h4.78z"/></g></svg>