<svg enable-background="new 0 0 125.8 25" viewBox="0 0 125.8 25" xmlns="http://www.w3.org/2000/svg"><path d="m12.5 0c-6.9 0-12.5 5.6-12.5 12.5s5.6 12.5 12.5 12.5 12.5-5.6 12.5-12.5-5.6-12.5-12.5-12.5zm-3.1 11.5h6.9c.8-.1 1.6.3 2.1 1s.6 1.6.4 2.4c-.2.9-.6 1.8-1.3 2.4-.6.6-1.5 1-2.4 1h-9.4c0-1.1.9-2 2-2h7.7c.3 0 1.1-.1 1.3-1.4s-.5-1.4-.8-1.4h-6.8c-.8 0-1.6-.3-2.1-1s-.6-1.6-.4-2.4c.2-.9.6-1.8 1.3-2.4.6-.6 1.5-1 2.4-1h9c0 1.1-.9 2-2 2h-7.4c-.3 0-1.1.1-1.3 1.4s.5 1.4.8 1.4zm27.3-3.5c-1.3 0-2.2.5-2.2 1.4 0 2.9 7.2 1.4 7.2 6.1 0 2.4-2.1 3.8-5 3.8-2 0-3.9-.8-5.4-2.1l1-1.9c1.2 1.2 2.8 1.9 4.5 1.9 1.6 0 2.5-.6 2.5-1.6 0-3-7.2-1.3-7.2-6 0-2.3 2-3.7 4.8-3.7 1.6 0 3.2.5 4.6 1.4l-.9 2c-1.2-.8-2.5-1.2-3.9-1.3zm13 11.3v-1.2c-.8.9-2.1 1.4-3.3 1.3-2.2 0-3.5-1.3-3.5-3.1s1.4-3 3.8-3h3.1v-.3c0-1.3-.8-2-2.4-2-1.1 0-2.1.4-3 1l-.9-1.5c1.3-.9 2.8-1.4 4.4-1.3 2.6 0 4.1 1.3 4.1 3.6v6.6h-2.3zm0-3.5v-.9h-2.8c-1.4 0-2.1.4-2.1 1.3s.7 1.5 2 1.5c1.5 0 2.7-.8 2.9-1.9zm10.1-6.7v2.1c-1.7-.2-3.2.9-3.5 2.6v.2 5.3h-2.2v-10.1h2.2v2c.6-1.3 2-2.1 3.5-2.1zm11.7 5.2c0 3-1.9 5.1-4.8 5.1-1.4.1-2.8-.6-3.6-1.8v1.8h-2.1v-14.2h2.2v5.8c.8-1.2 2.1-1.9 3.5-1.8 2.9-.1 4.8 2 4.8 5.1zm-2.2-.1c.1-1.7-1.2-3.2-2.9-3.3s-3.2 1.2-3.3 2.9v.4c-.1 1.7 1.2 3.2 2.9 3.3s3.2-1.2 3.3-2.9c0-.1 0-.3 0-.4zm10.1 5.1v-1.2c-.9.9-2.1 1.4-3.4 1.3-2.2 0-3.6-1.3-3.6-3.1s1.4-3 3.8-3h3.1v-.3c0-1.3-.8-2-2.4-2-1.1 0-2.1.4-3 1l-.9-1.5c1.3-.9 2.8-1.3 4.3-1.3 2.6 0 4.1 1.3 4.1 3.6v6.6zm0-3.5v-.9h-2.8c-1.4 0-2.1.4-2.1 1.3s.7 1.5 2 1.5c1.5 0 2.7-.8 2.9-1.9zm8.8-4.7c-1.7 0-3 1.3-3 3v.2c-.1 1.7 1.1 3.1 2.8 3.2h.2c1.1.1 2.2-.4 3-1.2l1.2 1.2c-1 1.3-2.6 2-4.3 1.9-2.7.2-5-1.9-5.1-4.6 0-.2 0-.3 0-.5-.2-2.7 1.9-5 4.6-5.1h.5c1.6-.1 3.1.5 4.2 1.6l-1.2 1.4c-.8-.8-1.8-1.2-2.9-1.1zm12.1 8.2v-1.2c-.8.9-2.1 1.4-3.3 1.3-2.2 0-3.6-1.3-3.6-3.1s1.4-3 3.8-3h3.1v-.3c0-1.3-.8-2-2.4-2-1.1 0-2.1.4-3 1l-.9-1.5c1.3-.9 2.8-1.3 4.3-1.3 2.6 0 4.1 1.3 4.1 3.6v6.6zm0-3.5v-.9h-2.8c-1.4 0-2.1.4-2.1 1.3s.7 1.5 2 1.5c1.5 0 2.7-.8 2.9-1.9zm14.1-2.8v6.3h-2.2v-5.6c.1-1.2-.8-2.3-2-2.4-.1 0-.3 0-.4 0-1.5 0-2.8 1.2-2.9 2.8v5.4h-2.2v-10.3h2.2v1.9c.7-1.4 2.2-2.1 3.7-2 1.9-.1 3.6 1.3 3.8 3.3zm11.3 2.1h-7.6c.3 1.5 1.6 2.6 3.1 2.5 1.1 0 2.1-.4 2.8-1.2l1.2 1.2c-1.1 1.1-2.6 1.8-4.2 1.7-2.7.2-5-1.9-5.2-4.6 0-.2 0-.4 0-.6-.1-2.7 2-5 4.7-5.1h.5c3.5.1 5 2.5 4.7 6.1zm-1.9-1.6c0-1.4-1.1-2.6-2.5-2.6-.1 0-.2 0-.3 0-1.5-.1-2.9 1.1-3 2.6z" fill="#fff"/></svg>