<svg viewBox="0 0 125.78 25" xmlns="http://www.w3.org/2000/svg" xmlns:xlink="http://www.w3.org/1999/xlink"><linearGradient id="a" gradientUnits="userSpaceOnUse" x1="12.5" x2="12.5" y1="26.16" y2="-3.8"><stop offset="0" stop-color="#c33e61"/><stop offset=".2" stop-color="#fb395e"/><stop offset=".71" stop-color="#f95b1e"/></linearGradient><circle cx="12.5" cy="12.5" fill="url(#a)" r="12.5"/><path d="m15.59 6.68h-5.3a3.35 3.35 0 0 0 -2.4 1 4.29 4.29 0 0 0 -1.32 2.44 3 3 0 0 0 .43 2.38 2.35 2.35 0 0 0 2.07 1h6.83c.32 0 1 .13.81 1.38s-1 1.38-1.29 1.38h-7.68a2 2 0 0 0 -2 2h9.36a3.4 3.4 0 0 0 2.42-1 4.29 4.29 0 0 0 1.27-2.41 3.13 3.13 0 0 0 -.42-2.4 2.36 2.36 0 0 0 -2.08-1h-6.87c-.32 0-1-.13-.81-1.37s1-1.39 1.3-1.39h7.35a2 2 0 0 0 2-2z" fill="#fff"/><g fill="#3d3d3f" stroke="#000" stroke-miterlimit="10" stroke-width=".05"><path d="m36.68 8c-1.31 0-2.17.49-2.17 1.39 0 2.91 7.18 1.35 7.16 6.14 0 2.37-2.09 3.84-5 3.84a8.18 8.18 0 0 1 -5.43-2.11l1-1.94a7 7 0 0 0 4.5 1.94c1.56 0 2.49-.59 2.49-1.61 0-3-7.18-1.31-7.18-6 0-2.28 2-3.7 4.84-3.7a8.66 8.66 0 0 1 4.61 1.34l-.93 2a8 8 0 0 0 -3.89-1.29z"/><path d="m49.66 19.32v-1.24a4.1 4.1 0 0 1 -3.34 1.33c-2.19 0-3.55-1.35-3.55-3.13s1.39-3 3.82-3h3.06v-.3c0-1.27-.82-2-2.41-2a5.33 5.33 0 0 0 -3 1l-.89-1.52a7.4 7.4 0 0 1 4.35-1.32c2.6 0 4.07 1.33 4.08 3.55v6.63zm0-3.55v-.93h-2.76c-1.42 0-2.09.38-2.09 1.35s.74 1.5 2 1.5c1.52 0 2.71-.82 2.83-1.92z"/><path d="m59.78 9.14v2.09a3.06 3.06 0 0 0 -3.5 2.77v5.28h-2.18v-10.07h2.18v2a3.68 3.68 0 0 1 3.5-2.07z"/><path d="m71.53 14.3c0 3-1.9 5.09-4.79 5.09a4 4 0 0 1 -3.57-1.82v1.75h-2.17v-14.1h2.18v5.78a4 4 0 0 1 3.53-1.82c2.87-.04 4.82 2.05 4.82 5.12zm-2.2-.08a3.08 3.08 0 1 0 -6.15 0 3.09 3.09 0 1 0 6.15 0z"/><path d="m79.38 19.32v-1.24a4.1 4.1 0 0 1 -3.38 1.33c-2.19 0-3.55-1.35-3.55-3.13s1.39-3 3.82-3h3.06v-.3c0-1.27-.82-2-2.41-2a5.33 5.33 0 0 0 -3 1l-.89-1.52a7.4 7.4 0 0 1 4.35-1.27c2.6 0 4.07 1.33 4.08 3.55v6.63zm0-3.55v-.93h-2.76c-1.42 0-2.09.38-2.09 1.35s.74 1.5 2 1.5c1.47 0 2.71-.82 2.83-1.92z"/><path d="m88.22 11.06a3 3 0 0 0 -3 3.23 3 3 0 0 0 3 3.23 3.77 3.77 0 0 0 3-1.22l1.22 1.22a5.14 5.14 0 0 1 -4.29 1.88 4.86 4.86 0 0 1 -5.15-5.11 4.88 4.88 0 0 1 5.09-5.15 5.33 5.33 0 0 1 4.18 1.65l-1.2 1.41a3.81 3.81 0 0 0 -2.85-1.14z"/><path d="m100.25 19.32v-1.24a4.1 4.1 0 0 1 -3.34 1.33c-2.18 0-3.55-1.35-3.55-3.13s1.39-3 3.82-3h3.06v-.3c0-1.27-.82-2-2.41-2a5.33 5.33 0 0 0 -3 1l-.89-1.52a7.4 7.4 0 0 1 4.35-1.27c2.6 0 4.07 1.33 4.08 3.55v6.63zm0-3.55v-.93h-2.76c-1.42 0-2.09.38-2.09 1.35s.74 1.5 2 1.5c1.52 0 2.71-.82 2.83-1.92z"/><path d="m114.36 13v6.29h-2.18v-5.65a2.25 2.25 0 0 0 -2.43-2.45 2.83 2.83 0 0 0 -2.87 2.75v5.38h-2.18v-10.11h2.18v1.94a3.82 3.82 0 0 1 3.72-2c2.4-.01 3.76 1.47 3.76 3.85z"/><path d="m125.72 15.1h-7.64a3.08 3.08 0 0 0 3.13 2.53 3.93 3.93 0 0 0 2.85-1.18l1.16 1.23a5.5 5.5 0 0 1 -4.22 1.72 4.86 4.86 0 0 1 -5.17-5.11 4.91 4.91 0 0 1 5.17-5.15c3.54 0 5 2.31 4.72 5.96zm-1.9-1.6a2.6 2.6 0 0 0 -2.82-2.61 2.86 2.86 0 0 0 -3 2.62z"/></g></svg>