<svg xmlns="http://www.w3.org/2000/svg" xmlns:xlink="http://www.w3.org/1999/xlink" viewBox="0 0 125.78 25"><defs><style>.cls-1{fill:url(#Dégradé_sans_nom_20);}.cls-2,.cls-3{fill:#fff;}.cls-3{stroke:#fff;stroke-miterlimit:10;stroke-width:0.05px;}</style><linearGradient id="Dégradé_sans_nom_20" x1="12.5" y1="26.16" x2="12.5" y2="-3.8" gradientUnits="userSpaceOnUse"><stop offset="0" stop-color="#c33e61"/><stop offset="0.2" stop-color="#fb395e"/><stop offset="0.71" stop-color="#f95b1e"/></linearGradient></defs><title>Fichier 2</title><g id="Calque_2" data-name="Calque 2"><g id="Calque_1-2" data-name="Calque 1"><circle class="cls-1" cx="12.5" cy="12.5" r="12.5"/><path class="cls-2" d="M15.59,6.68h-5.3a3.35,3.35,0,0,0-2.4,1,4.29,4.29,0,0,0-1.32,2.44A3,3,0,0,0,7,12.5a2.35,2.35,0,0,0,2.07,1h6.83c.32,0,1,.13.81,1.38s-1,1.38-1.29,1.38H7.74a2,2,0,0,0-2,2h9.36a3.4,3.4,0,0,0,2.42-1,4.29,4.29,0,0,0,1.27-2.41,3.13,3.13,0,0,0-.42-2.4,2.36,2.36,0,0,0-2.08-1H9.42c-.32,0-1-.13-.81-1.37s1-1.39,1.3-1.39h7.35a2,2,0,0,0,2-2Z"/><path class="cls-3" d="M36.68,8c-1.31,0-2.17.49-2.17,1.39,0,2.91,7.18,1.35,7.16,6.14,0,2.37-2.09,3.84-5,3.84a8.18,8.18,0,0,1-5.43-2.11l1-1.94a7,7,0,0,0,4.5,1.94c1.56,0,2.49-.59,2.49-1.61,0-3-7.18-1.31-7.18-6,0-2.28,2-3.7,4.84-3.7A8.66,8.66,0,0,1,41.5,7.29l-.93,2A8,8,0,0,0,36.68,8Z"/><path class="cls-3" d="M49.66,19.32V18.08a4.1,4.1,0,0,1-3.34,1.33c-2.19,0-3.55-1.35-3.55-3.13s1.39-3,3.82-3h3.06v-.3c0-1.27-.82-2-2.41-2a5.33,5.33,0,0,0-3,1l-.89-1.52A7.4,7.4,0,0,1,47.7,9.14c2.6,0,4.07,1.33,4.08,3.55l0,6.63Zm0-3.55v-.93H46.9c-1.42,0-2.09.38-2.09,1.35s.74,1.5,2,1.5C48.33,17.69,49.52,16.87,49.64,15.77Z"/><path class="cls-3" d="M59.78,9.14v2.09A3.06,3.06,0,0,0,56.28,14v5.28H54.1V9.21h2.18v2A3.68,3.68,0,0,1,59.78,9.14Z"/><path class="cls-3" d="M71.53,14.3c0,3-1.9,5.09-4.79,5.09a4,4,0,0,1-3.57-1.82v1.75H61V5.22h2.18V11a4,4,0,0,1,3.53-1.82C69.58,9.14,71.53,11.23,71.53,14.3Zm-2.2-.08a3.08,3.08,0,1,0-6.15,0,3.09,3.09,0,1,0,6.15,0Z"/><path class="cls-3" d="M79.38,19.32V18.08A4.1,4.1,0,0,1,76,19.41c-2.19,0-3.55-1.35-3.55-3.13s1.39-3,3.82-3h3.06v-.3c0-1.27-.82-2-2.41-2a5.33,5.33,0,0,0-3,1l-.89-1.52a7.4,7.4,0,0,1,4.35-1.27c2.6,0,4.07,1.33,4.08,3.55l0,6.63Zm0-3.55v-.93H76.62c-1.42,0-2.09.38-2.09,1.35s.74,1.5,2,1.5C78,17.69,79.24,16.87,79.36,15.77Z"/><path class="cls-3" d="M88.22,11.06a3,3,0,0,0-3,3.23,3,3,0,0,0,3,3.23,3.77,3.77,0,0,0,3-1.22l1.22,1.22a5.14,5.14,0,0,1-4.29,1.88A4.86,4.86,0,0,1,83,14.29a4.88,4.88,0,0,1,5.09-5.15,5.33,5.33,0,0,1,4.18,1.65l-1.2,1.41A3.81,3.81,0,0,0,88.22,11.06Z"/><path class="cls-3" d="M100.25,19.32V18.08a4.1,4.1,0,0,1-3.34,1.33c-2.18,0-3.55-1.35-3.55-3.13s1.39-3,3.82-3h3.06v-.3c0-1.27-.82-2-2.41-2a5.33,5.33,0,0,0-3,1l-.89-1.52a7.4,7.4,0,0,1,4.35-1.27c2.6,0,4.07,1.33,4.08,3.55l0,6.63Zm0-3.55v-.93H97.49c-1.42,0-2.09.38-2.09,1.35s.74,1.5,2,1.5C98.92,17.69,100.11,16.87,100.23,15.77Z"/><path class="cls-3" d="M114.36,13v6.29h-2.18V13.64a2.25,2.25,0,0,0-2.43-2.45,2.83,2.83,0,0,0-2.87,2.75v5.38h-2.18V9.21h2.18v1.94a3.82,3.82,0,0,1,3.72-2C113,9.14,114.36,10.62,114.36,13Z"/><path class="cls-3" d="M125.72,15.1h-7.64a3.08,3.08,0,0,0,3.13,2.53,3.93,3.93,0,0,0,2.85-1.18l1.16,1.23A5.5,5.5,0,0,1,121,19.4a4.86,4.86,0,0,1-5.17-5.11A4.91,4.91,0,0,1,121,9.14C124.54,9.14,126,11.45,125.72,15.1Zm-1.9-1.6A2.6,2.6,0,0,0,121,10.89a2.86,2.86,0,0,0-3,2.62Z"/></g></g></svg>